<?xml version="1.0" standalone="no"?>
<!DOCTYPE svg PUBLIC "-//W3C//DTD SVG 20010904//EN"
 "http://www.w3.org/TR/2001/REC-SVG-20010904/DTD/svg10.dtd">
<svg version="1.0" xmlns="http://www.w3.org/2000/svg"
 width="878.000000pt" height="155.000000pt" viewBox="0 0 878.000000 155.000000"
 preserveAspectRatio="xMidYMid meet">

<g transform="translate(0.000000,155.000000) scale(0.100000,-0.100000)"
fill="#000000" stroke="none">
<path d="M7330 1360 c-173 -30 -276 -127 -316 -296 -23 -97 -15 -315 14 -396
26 -71 71 -139 117 -174 124 -94 402 -110 563 -33 133 65 202 211 202 429 0
218 -69 364 -202 429 -92 44 -256 62 -378 41z m205 -161 c60 -17 104 -55 134
-118 24 -52 26 -66 26 -191 0 -125 -2 -139 -26 -191 -44 -93 -127 -137 -242
-127 -155 13 -223 123 -215 347 4 124 32 201 89 244 59 44 152 58 234 36z"/>
<path d="M290 890 l0 -461 318 3 c306 3 319 4 367 26 27 12 58 30 68 40 52 47
80 168 57 252 -12 43 -74 118 -110 133 -12 5 -10 10 10 24 74 53 103 110 103
203 0 101 -48 177 -138 217 -35 15 -80 18 -357 21 l-318 4 0 -462z m555 286
c45 -19 64 -76 46 -137 -18 -61 -47 -69 -241 -69 l-160 0 0 110 0 110 160 0
c116 0 170 -4 195 -14z m-6 -377 c52 -18 76 -89 51 -154 -17 -45 -61 -55 -240
-55 l-160 0 0 110 0 110 159 0 c90 0 172 -5 190 -11z"/>
<path d="M1504 1335 c-200 -43 -293 -189 -294 -455 0 -169 33 -266 121 -351
85 -83 124 -93 397 -97 l232 -4 0 81 0 81 -181 0 c-99 0 -199 5 -222 11 -77
19 -116 68 -126 159 l-7 60 268 0 268 0 0 80 0 80 -266 0 -267 0 6 40 c8 64
39 112 88 140 42 24 52 25 242 28 l197 4 0 79 0 79 -197 -1 c-125 0 -221 -6
-259 -14z"/>
<path d="M2130 890 l0 -460 100 0 100 0 -1 88 c0 48 -4 206 -8 352 -5 146 -7
266 -6 268 2 2 56 -157 121 -353 l119 -356 104 3 103 3 113 343 c62 189 115
346 119 349 3 3 3 -16 1 -43 -2 -27 -7 -185 -10 -351 l-5 -303 95 0 95 0 0
460 0 461 -142 -3 -141 -3 -117 -350 -117 -350 -117 353 -118 352 -144 0 -144
0 0 -460z"/>
<path d="M3647 1333 c4 -10 93 -216 199 -458 l192 -440 102 0 101 0 190 453
c104 250 189 456 189 458 0 3 -46 3 -102 2 l-102 -3 -133 -320 c-73 -176 -136
-329 -141 -339 -6 -14 -41 62 -146 323 l-138 341 -109 0 c-99 0 -108 -1 -102
-17z"/>
<path d="M4680 890 l0 -460 100 0 100 0 0 460 0 460 -100 0 -100 0 0 -460z"/>
<path d="M5060 890 l0 -460 101 0 100 0 -3 340 c-2 187 -1 340 2 340 3 0 91
-152 196 -338 l191 -337 111 -3 112 -3 0 461 0 460 -95 0 -96 0 3 -325 c2
-247 0 -322 -9 -310 -6 9 -91 155 -188 326 l-176 309 -125 0 -124 0 0 -460z"/>
<path d="M6060 890 l0 -462 288 4 c331 5 347 8 439 92 98 89 140 218 129 396
-14 228 -86 344 -251 405 -43 16 -89 19 -327 23 l-278 4 0 -462z m512 290 c99
-28 132 -101 132 -290 0 -145 -17 -214 -65 -254 -44 -37 -89 -46 -241 -46
l-138 0 0 300 0 300 138 0 c75 0 154 -5 174 -10z"/>
<path d="M8050 1010 l0 -340 100 0 100 0 0 340 0 340 -100 0 -100 0 0 -340z"/>
<path d="M3290 780 l0 -80 215 0 215 0 0 80 0 80 -215 0 -215 0 0 -80z"/>
<path d="M8050 510 l0 -80 100 0 100 0 0 80 0 80 -100 0 -100 0 0 -80z"/>
</g>
</svg>
