<?xml version="1.0" standalone="no"?>
<!DOCTYPE svg PUBLIC "-//W3C//DTD SVG 20010904//EN"
 "http://www.w3.org/TR/2001/REC-SVG-20010904/DTD/svg10.dtd">
<svg version="1.0" xmlns="http://www.w3.org/2000/svg"
 width="833.000000pt" height="98.000000pt" viewBox="0 0 833.000000 98.000000"
 preserveAspectRatio="xMidYMid meet">

<g transform="translate(0.000000,98.000000) scale(0.100000,-0.100000)"
fill="#000000" stroke="none">
<path d="M7675 781 c-45 -11 -70 -27 -99 -61 -32 -39 -46 -88 -46 -171 0 -169
85 -248 252 -237 141 11 201 81 201 238 0 160 -61 230 -207 236 -39 2 -84 0
-101 -5z m152 -91 c36 -21 53 -67 53 -140 0 -114 -43 -165 -133 -157 -63 5
-93 34 -107 103 -20 94 11 185 70 207 32 12 87 6 117 -13z"/>
<path d="M250 550 l0 -230 135 0 c179 0 227 19 266 105 22 47 25 166 7 228
-16 52 -63 99 -115 115 -22 7 -97 12 -167 12 l-126 0 0 -230z m270 135 c67
-35 67 -238 0 -272 -14 -7 -60 -13 -102 -13 l-78 0 0 150 0 150 75 0 c48 0 87
-6 105 -15z"/>
<path d="M867 773 c-9 -15 -187 -441 -187 -447 0 -3 22 -6 49 -6 l48 0 19 53
19 52 101 3 101 3 20 -53 20 -53 56 -3 56 -3 -98 228 -98 228 -51 3 c-27 2
-52 -1 -55 -5z m87 -181 c16 -40 26 -75 23 -78 -2 -3 -32 -4 -65 -2 l-59 3 30
83 c16 46 33 79 37 75 3 -4 19 -41 34 -81z"/>
<path d="M1090 740 l0 -40 75 0 75 0 0 -190 0 -190 50 0 50 0 0 190 0 190 75
0 75 0 0 40 0 40 -200 0 -200 0 0 -40z"/>
<path d="M1607 773 c-9 -15 -187 -441 -187 -447 0 -3 22 -6 49 -6 l48 0 19 53
19 52 101 3 101 3 20 -53 20 -53 56 -3 56 -3 -98 228 -98 228 -51 3 c-27 2
-52 -1 -55 -5z m87 -181 c16 -40 26 -75 23 -78 -2 -3 -32 -4 -65 -2 l-59 3 30
83 c16 46 33 79 37 75 3 -4 19 -41 34 -81z"/>
<path d="M2190 550 l0 -230 135 0 c179 0 227 19 266 105 22 47 25 166 7 228
-16 52 -63 99 -115 115 -22 7 -97 12 -167 12 l-126 0 0 -230z m270 135 c67
-35 67 -238 0 -272 -14 -7 -60 -13 -102 -13 l-78 0 0 150 0 150 75 0 c48 0 87
-6 105 -15z"/>
<path d="M2788 770 c-49 -15 -86 -43 -110 -84 -20 -35 -23 -55 -23 -136 0
-114 18 -158 78 -198 38 -25 50 -27 169 -31 l128 -3 0 41 0 41 -100 0 c-54 0
-110 5 -123 11 -26 12 -47 47 -47 79 0 19 8 20 135 20 l135 0 0 40 0 40 -135
0 c-149 0 -151 1 -120 61 21 40 50 49 161 49 l94 0 0 40 0 40 -107 -1 c-60 0
-120 -4 -135 -9z"/>
<path d="M3360 550 l0 -230 50 0 50 0 -6 173 c-3 118 -2 167 5 157 6 -8 50
-85 99 -170 l89 -155 57 -3 56 -3 0 231 0 230 -51 0 -50 0 7 -162 c4 -94 3
-160 -2 -155 -5 5 -48 77 -95 160 l-86 152 -62 3 -61 3 0 -231z"/>
<path d="M3987 773 c-9 -15 -187 -441 -187 -447 0 -3 22 -6 49 -6 l48 0 19 53
19 52 101 3 101 3 20 -53 20 -53 56 -3 56 -3 -98 228 -98 228 -51 3 c-27 2
-52 -1 -55 -5z m87 -181 c16 -40 26 -75 23 -78 -2 -3 -32 -4 -65 -2 l-59 3 30
83 c16 46 33 79 37 75 3 -4 19 -41 34 -81z"/>
<path d="M4371 767 c-19 -7 -43 -24 -54 -38 -27 -37 -33 -108 -13 -150 26 -55
48 -63 179 -67 106 -4 119 -6 132 -25 20 -29 19 -43 -5 -67 -18 -18 -33 -20
-160 -20 l-140 0 0 -40 0 -40 153 1 c167 0 209 9 240 50 27 37 33 106 13 152
-22 53 -61 67 -189 67 -88 0 -106 3 -120 18 -22 25 -21 48 3 72 18 18 33 20
160 20 l140 0 0 40 0 40 -152 -1 c-91 0 -167 -5 -187 -12z"/>
<path d="M4908 770 c-49 -15 -86 -43 -110 -84 -20 -35 -23 -55 -23 -136 0
-114 18 -158 78 -198 38 -25 50 -27 169 -31 l128 -3 0 41 0 41 -104 0 c-94 0
-108 2 -131 23 -31 26 -47 85 -39 147 14 112 39 130 179 130 l95 0 0 40 0 40
-107 -1 c-60 0 -120 -4 -135 -9z"/>
<path d="M5220 550 l0 -230 50 0 50 0 0 230 0 230 -50 0 -50 0 0 -230z"/>
<path d="M5420 550 l0 -230 48 0 47 0 -2 172 -2 173 58 -170 58 -170 53 0 53
0 52 163 c29 90 56 166 59 170 4 3 4 -71 0 -166 l-7 -172 51 0 52 0 0 230 0
230 -73 0 -72 0 -59 -177 -59 -178 -59 178 -60 177 -69 0 -69 0 0 -230z"/>
<path d="M6030 550 l0 -230 50 0 50 0 0 230 0 230 -50 0 -50 0 0 -230z"/>
<path d="M6338 770 c-49 -15 -86 -43 -110 -84 -20 -35 -23 -55 -23 -136 0
-114 18 -158 78 -198 38 -25 50 -27 169 -31 l128 -3 0 41 0 41 -100 0 c-54 0
-110 5 -123 11 -26 12 -47 47 -47 79 0 19 8 20 135 20 l135 0 0 40 0 40 -135
0 c-149 0 -151 1 -120 61 21 40 50 49 161 49 l94 0 0 40 0 40 -107 -1 c-60 0
-120 -4 -135 -9z"/>
<path d="M6660 550 l0 -230 50 0 50 0 -6 173 c-3 118 -2 167 5 157 6 -8 50
-85 99 -170 l89 -155 57 -3 56 -3 0 231 0 230 -51 0 -50 0 7 -162 c4 -94 3
-160 -2 -155 -5 5 -48 77 -95 160 l-86 152 -62 3 -61 3 0 -231z"/>
<path d="M7110 740 l0 -40 75 0 75 0 0 -190 0 -190 50 0 50 0 0 190 0 190 75
0 75 0 0 40 0 40 -200 0 -200 0 0 -40z"/>
</g>
</svg>
