<?xml version="1.0" standalone="no"?>
<!DOCTYPE svg PUBLIC "-//W3C//DTD SVG 20010904//EN"
 "http://www.w3.org/TR/2001/REC-SVG-20010904/DTD/svg10.dtd">
<svg version="1.0" xmlns="http://www.w3.org/2000/svg"
 width="267.000000pt" height="95.000000pt" viewBox="0 0 267.000000 95.000000"
 preserveAspectRatio="xMidYMid meet">

<g transform="translate(0.000000,95.000000) scale(0.100000,-0.100000)"
fill="#000000" stroke="none">
<path d="M358 740 c-49 -15 -86 -43 -110 -84 -20 -35 -23 -55 -23 -136 0 -114
18 -158 78 -198 38 -25 50 -27 169 -31 l128 -3 0 41 0 41 -100 0 c-54 0 -110
5 -123 11 -26 12 -47 47 -47 79 0 19 8 20 135 20 l135 0 0 40 0 40 -135 0
c-149 0 -151 1 -120 61 21 40 50 49 161 49 l94 0 0 40 0 40 -107 -1 c-60 0
-120 -4 -135 -9z"/>
<path d="M680 520 l0 -230 48 0 47 0 -2 172 -2 173 58 -170 58 -170 53 0 53 0
52 163 c29 90 56 166 59 170 4 3 4 -71 0 -166 l-7 -172 51 0 52 0 0 230 0 230
-73 0 -72 0 -59 -177 -59 -178 -59 178 -60 177 -69 0 -69 0 0 -230z"/>
<path d="M1417 743 c-9 -15 -187 -441 -187 -447 0 -3 22 -6 49 -6 l48 0 19 53
19 52 101 3 101 3 20 -53 20 -53 56 -3 56 -3 -98 228 -98 228 -51 3 c-27 2
-52 -1 -55 -5z m87 -181 c16 -40 26 -75 23 -78 -2 -3 -32 -4 -65 -2 l-59 3 30
83 c16 46 33 79 37 75 3 -4 19 -41 34 -81z"/>
<path d="M1750 520 l0 -230 50 0 50 0 0 230 0 230 -50 0 -50 0 0 -230z"/>
<path d="M1940 580 c0 -192 7 -222 61 -261 30 -21 47 -24 141 -28 l108 -3 0
41 0 41 -75 0 c-89 0 -120 13 -135 53 -5 16 -10 97 -10 178 l0 149 -45 0 -45
0 0 -170z"/>
</g>
</svg>
