<?xml version="1.0" standalone="no"?>
<!DOCTYPE svg PUBLIC "-//W3C//DTD SVG 20010904//EN"
 "http://www.w3.org/TR/2001/REC-SVG-20010904/DTD/svg10.dtd">
<svg version="1.0" xmlns="http://www.w3.org/2000/svg"
 width="313.000000pt" height="95.000000pt" viewBox="0 0 313.000000 95.000000"
 preserveAspectRatio="xMidYMid meet">

<g transform="translate(0.000000,95.000000) scale(0.100000,-0.100000)"
fill="#000000" stroke="none">
<path d="M358 740 c-49 -15 -86 -43 -110 -84 -20 -35 -23 -55 -23 -136 0 -114
18 -158 78 -198 38 -25 50 -27 169 -31 l128 -3 0 41 0 41 -100 0 c-54 0 -110
5 -123 11 -26 12 -47 47 -47 79 0 19 8 20 135 20 l135 0 0 40 0 40 -135 0
c-149 0 -151 1 -120 61 21 40 50 49 161 49 l94 0 0 40 0 40 -107 -1 c-60 0
-120 -4 -135 -9z"/>
<path d="M680 520 l0 -230 50 0 50 0 -6 173 c-3 118 -2 167 5 157 6 -8 50 -85
99 -170 l89 -155 57 -3 56 -3 0 231 0 230 -51 0 -50 0 7 -162 c4 -94 3 -160
-2 -155 -5 5 -48 77 -95 160 l-86 152 -62 3 -61 3 0 -231z"/>
<path d="M1116 737 c3 -8 47 -110 98 -228 l94 -214 52 0 52 0 94 225 c52 124
94 226 94 228 0 2 -23 2 -52 0 l-51 -3 -70 -168 -70 -169 -43 109 c-24 59 -56
136 -70 171 l-26 62 -54 0 c-40 0 -52 -3 -48 -13z"/>
<path d="M1630 520 l0 -230 50 0 50 0 0 230 0 230 -50 0 -50 0 0 -230z"/>
<path d="M1957 743 c-9 -15 -187 -441 -187 -447 0 -3 22 -6 49 -6 l48 0 19 53
19 52 101 3 101 3 20 -53 20 -53 56 -3 56 -3 -98 228 -98 228 -51 3 c-27 2
-52 -1 -55 -5z m87 -181 c16 -40 26 -75 23 -78 -2 -3 -32 -4 -65 -2 l-59 3 30
83 c16 46 33 79 37 75 3 -4 19 -41 34 -81z"/>
<path d="M2290 520 l0 -230 45 0 45 0 0 90 0 90 59 0 59 0 49 -87 48 -88 53
-3 c28 -2 52 1 52 5 0 4 -23 45 -50 91 -28 46 -50 86 -50 90 0 4 10 12 22 17
41 19 62 61 62 121 -1 66 -24 103 -75 121 -20 7 -93 12 -176 12 l-143 1 0
-230z m280 130 c11 -11 20 -29 20 -40 0 -11 -9 -29 -20 -40 -17 -17 -33 -20
-105 -20 l-85 0 0 60 0 60 85 0 c72 0 88 -3 105 -20z"/>
</g>
</svg>
