<?xml version="1.0" standalone="no"?>
<!DOCTYPE svg PUBLIC "-//W3C//DTD SVG 20010904//EN"
 "http://www.w3.org/TR/2001/REC-SVG-20010904/DTD/svg10.dtd">
<svg version="1.0" xmlns="http://www.w3.org/2000/svg"
 width="812.000000pt" height="130.000000pt" viewBox="0 0 812.000000 130.000000"
 preserveAspectRatio="xMidYMid meet">

<g transform="translate(0.000000,130.000000) scale(0.100000,-0.100000)"
fill="#000000" stroke="none">
<path d="M300 640 l0 -460 100 0 100 0 0 460 0 460 -100 0 -100 0 0 -460z"/>
<path d="M924 1085 c-200 -43 -293 -190 -294 -460 0 -107 16 -188 51 -257 32
-62 110 -133 176 -159 55 -22 73 -24 341 -27 l282 -3 0 270 0 271 -230 0 -230
0 0 -80 0 -80 130 0 130 0 0 -111 0 -110 -147 3 c-173 4 -209 15 -248 82 -71
122 -50 398 36 470 47 40 90 46 332 46 l227 0 0 80 0 80 -247 -1 c-166 0 -268
-5 -309 -14z"/>
<path d="M1612 763 c4 -291 7 -345 22 -385 25 -66 94 -140 158 -169 49 -22 69
-24 251 -27 l197 -4 0 80 0 80 -162 4 c-182 4 -213 12 -248 71 -19 30 -20 52
-20 360 l0 327 -101 0 -101 0 4 -337z"/>
<path d="M2584 1085 c-200 -43 -293 -189 -294 -455 0 -169 33 -266 121 -351
85 -83 124 -93 397 -97 l232 -4 0 81 0 81 -181 0 c-99 0 -199 5 -222 11 -77
19 -116 68 -126 159 l-7 60 268 0 268 0 0 80 0 80 -266 0 -267 0 6 40 c8 64
39 112 88 140 42 24 52 25 242 28 l197 4 0 79 0 79 -197 -1 c-125 0 -221 -6
-259 -14z"/>
<path d="M3550 798 c0 -323 -5 -365 -47 -410 -35 -37 -92 -48 -252 -48 l-141
0 0 -81 0 -81 208 4 c190 3 211 6 259 27 61 27 116 83 147 150 20 44 21 63 24
394 l3 347 -100 0 -101 0 0 -302z"/>
<path d="M4187 1093 c-5 -8 -363 -851 -378 -890 -8 -23 -8 -23 94 -23 l102 0
40 110 40 110 200 0 200 0 41 -107 41 -108 108 -3 c100 -2 107 -1 101 15 -4
10 -91 217 -194 460 l-187 442 -102 1 c-56 0 -104 -3 -106 -7z m233 -529 c0
-2 -61 -4 -136 -4 -126 0 -136 1 -129 18 4 9 31 80 60 157 29 77 57 149 61
159 5 14 25 -26 76 -154 37 -95 68 -174 68 -176z"/>
<path d="M5480 1084 c-79 -21 -125 -57 -157 -121 -22 -46 -26 -69 -27 -142 0
-75 3 -94 27 -143 51 -104 95 -119 374 -127 207 -6 212 -7 238 -31 23 -21 26
-31 23 -79 -3 -46 -7 -57 -31 -75 -27 -20 -42 -21 -313 -24 l-284 -3 0 -79 0
-80 293 0 c306 0 371 7 438 46 96 56 135 225 82 354 -19 48 -50 79 -103 104
-40 18 -70 21 -268 26 l-224 5 -24 28 c-29 34 -33 109 -8 146 33 46 64 51 344
51 l260 0 0 80 0 80 -292 -1 c-225 0 -306 -4 -348 -15z"/>
<path d="M6310 640 l0 -462 288 4 c331 5 347 8 439 92 98 89 140 218 129 396
-14 228 -86 344 -251 405 -43 16 -89 19 -327 23 l-278 4 0 -462z m512 290 c99
-28 132 -101 132 -290 0 -145 -17 -214 -65 -254 -44 -37 -89 -46 -241 -46
l-138 0 0 300 0 300 138 0 c75 0 154 -5 174 -10z"/>
<path d="M7544 1085 c-200 -43 -293 -189 -294 -455 0 -169 33 -266 121 -351
85 -83 124 -93 397 -97 l232 -4 0 80 0 81 -202 3 c-241 4 -265 11 -308 94 -23
45 -25 58 -25 189 1 125 3 146 24 193 27 60 66 97 119 112 20 5 117 10 215 10
l177 0 0 80 0 80 -197 -1 c-125 0 -221 -6 -259 -14z"/>
</g>
</svg>
