<?xml version="1.0" standalone="no"?>
<!DOCTYPE svg PUBLIC "-//W3C//DTD SVG 20010904//EN"
 "http://www.w3.org/TR/2001/REC-SVG-20010904/DTD/svg10.dtd">
<svg version="1.0" xmlns="http://www.w3.org/2000/svg"
 width="275.000000pt" height="95.000000pt" viewBox="0 0 275.000000 95.000000"
 preserveAspectRatio="xMidYMid meet">

<g transform="translate(0.000000,95.000000) scale(0.100000,-0.100000)"
fill="#000000" stroke="none">
<path d="M865 751 c-45 -11 -70 -27 -99 -61 -32 -39 -46 -88 -46 -171 0 -169
85 -248 252 -237 141 11 201 81 201 238 0 160 -61 230 -207 236 -39 2 -84 0
-101 -5z m152 -91 c36 -21 53 -67 53 -140 0 -114 -43 -165 -133 -157 -63 5
-93 34 -107 103 -20 94 11 185 70 207 32 12 87 6 117 -13z"/>
<path d="M250 520 l0 -230 50 0 50 0 -6 173 c-3 118 -2 167 5 157 6 -8 50 -85
99 -170 l89 -155 57 -3 56 -3 0 231 0 230 -51 0 -50 0 7 -162 c4 -94 3 -160
-2 -155 -5 5 -48 77 -95 160 l-86 152 -62 3 -61 3 0 -231z"/>
<path d="M1240 520 l0 -230 48 0 47 0 -2 172 -2 173 58 -170 58 -170 53 0 53
0 52 163 c29 90 56 166 59 170 4 3 4 -71 0 -166 l-7 -172 51 0 52 0 0 230 0
230 -73 0 -72 0 -59 -177 -59 -178 -59 178 -60 177 -69 0 -69 0 0 -230z"/>
<path d="M1958 740 c-49 -15 -86 -43 -110 -84 -20 -35 -23 -55 -23 -136 0
-114 18 -158 78 -198 38 -25 50 -27 169 -31 l128 -3 0 41 0 41 -100 0 c-54 0
-110 5 -123 11 -26 12 -47 47 -47 79 0 19 8 20 135 20 l135 0 0 40 0 40 -135
0 c-149 0 -151 1 -120 61 21 40 50 49 161 49 l94 0 0 40 0 40 -107 -1 c-60 0
-120 -4 -135 -9z"/>
</g>
</svg>
