<?xml version="1.0" standalone="no"?>
<!DOCTYPE svg PUBLIC "-//W3C//DTD SVG 20010904//EN"
 "http://www.w3.org/TR/2001/REC-SVG-20010904/DTD/svg10.dtd">
<svg version="1.0" xmlns="http://www.w3.org/2000/svg"
 width="1259.000000pt" height="159.000000pt" viewBox="0 0 1259.000000 159.000000"
 preserveAspectRatio="xMidYMid meet">
<metadata>
Created by potrace 1.16, written by Peter Selinger 2001-2019
</metadata>
<g transform="translate(0.000000,159.000000) scale(0.100000,-0.100000)"
fill="#000000" stroke="none">
<path d="M3341 1313 c-71 -103 -71 -103 -23 -103 33 0 50 8 93 45 29 25 56 45
59 45 3 0 30 -20 59 -45 43 -37 60 -45 93 -45 48 0 48 0 -23 103 l-54 77 -75
0 -75 0 -54 -77z"/>
<path d="M4801 1300 l-62 -90 43 0 c39 0 53 8 143 81 55 44 104 84 110 90 5 5
-25 9 -82 9 l-91 0 -61 -90z"/>
<path d="M10133 1363 l-20 -28 -59 13 c-120 27 -147 27 -182 -3 -29 -24 -62
-81 -62 -106 0 -18 54 -8 77 13 22 21 26 21 81 9 105 -23 134 -24 169 -2 33
21 55 55 67 104 6 25 4 27 -22 27 -19 0 -35 -9 -49 -27z"/>
<path d="M1520 1140 c-173 -30 -276 -127 -316 -296 -23 -97 -15 -315 14 -396
26 -71 71 -139 117 -174 124 -94 402 -110 563 -33 133 65 202 211 202 429 0
218 -69 364 -202 429 -92 44 -256 62 -378 41z m205 -161 c60 -17 104 -55 134
-118 24 -52 26 -66 26 -191 0 -125 -2 -139 -26 -191 -44 -93 -127 -137 -242
-127 -155 13 -223 123 -215 347 4 124 32 201 89 244 59 44 152 58 234 36z"/>
<path d="M10840 1140 c-173 -30 -276 -127 -316 -296 -23 -97 -15 -315 14 -396
26 -71 71 -139 117 -174 124 -94 402 -110 563 -33 133 65 202 211 202 429 0
218 -69 364 -202 429 -92 44 -256 62 -378 41z m205 -161 c60 -17 104 -55 134
-118 24 -52 26 -66 26 -191 0 -125 -2 -139 -26 -191 -44 -93 -127 -137 -242
-127 -155 13 -223 123 -215 347 4 124 32 201 89 244 59 44 152 58 234 36z"/>
<path d="M217 1113 c4 -10 93 -216 199 -458 l192 -440 102 0 101 0 190 453
c104 250 189 456 189 458 0 3 -46 3 -102 2 l-102 -3 -133 -320 c-73 -176 -136
-329 -141 -339 -6 -14 -41 62 -146 323 l-138 341 -109 0 c-99 0 -108 -1 -102
-17z"/>
<path d="M2474 1115 c-200 -43 -293 -189 -294 -455 0 -169 33 -266 121 -351
85 -83 124 -93 397 -97 l232 -4 0 80 0 81 -202 3 c-241 4 -265 11 -308 94 -23
45 -25 58 -25 189 1 125 3 146 24 193 27 60 66 97 119 112 20 5 117 10 215 10
l177 0 0 80 0 80 -197 -1 c-125 0 -221 -6 -259 -14z"/>
<path d="M3314 1115 c-200 -43 -293 -189 -294 -455 0 -169 33 -266 121 -351
85 -83 124 -93 397 -97 l232 -4 0 81 0 81 -181 0 c-99 0 -199 5 -222 11 -77
19 -116 68 -126 159 l-7 60 268 0 268 0 0 80 0 80 -266 0 -267 0 6 40 c8 64
39 112 88 140 42 24 52 25 242 28 l197 4 0 79 0 79 -197 -1 c-125 0 -221 -6
-259 -14z"/>
<path d="M4684 1115 c-200 -43 -293 -189 -294 -455 0 -169 33 -266 121 -351
85 -83 124 -93 397 -97 l232 -4 0 81 0 81 -181 0 c-99 0 -199 5 -222 11 -77
19 -116 68 -126 159 l-7 60 268 0 268 0 0 80 0 80 -266 0 -267 0 6 40 c8 64
39 112 88 140 42 24 52 25 242 28 l197 4 0 79 0 79 -197 -1 c-125 0 -221 -6
-259 -14z"/>
<path d="M6054 1115 c-200 -43 -293 -189 -294 -455 0 -169 33 -266 121 -351
85 -83 124 -93 397 -97 l232 -4 0 80 0 81 -202 3 c-241 4 -265 11 -308 94 -23
45 -25 58 -25 189 1 125 3 146 24 193 27 60 66 97 119 112 20 5 117 10 215 10
l177 0 0 80 0 80 -197 -1 c-125 0 -221 -6 -259 -14z"/>
<path d="M6650 671 l0 -461 100 0 100 0 0 180 0 180 113 0 113 0 100 -177 99
-178 108 -3 c59 -1 107 0 107 2 0 3 -49 88 -110 190 -60 102 -110 187 -110
190 0 2 14 7 31 11 40 9 95 58 121 109 27 52 35 165 18 236 -16 67 -63 120
-133 151 -50 23 -62 24 -354 27 l-303 4 0 -461z m563 277 c60 -40 55 -166 -8
-198 -22 -11 -73 -16 -192 -18 l-163 -4 0 122 0 122 168 -4 c139 -2 173 -6
195 -20z"/>
<path d="M7620 670 l0 -460 100 0 100 0 0 460 0 460 -100 0 -100 0 0 -460z"/>
<path d="M8140 1114 c-79 -21 -125 -57 -157 -121 -22 -46 -26 -69 -27 -142 0
-75 3 -94 27 -143 51 -104 95 -119 374 -127 207 -6 212 -7 238 -31 23 -21 26
-31 23 -79 -3 -46 -7 -57 -31 -75 -27 -20 -42 -21 -313 -24 l-284 -3 0 -79 0
-80 293 0 c306 0 371 7 438 46 96 56 135 225 82 354 -19 48 -50 79 -103 104
-40 18 -70 21 -268 26 l-224 5 -24 28 c-29 34 -33 109 -8 146 33 46 64 51 344
51 l260 0 0 80 0 80 -292 -1 c-225 0 -306 -4 -348 -15z"/>
<path d="M8880 1050 l0 -80 150 0 150 0 0 -380 0 -380 100 0 100 0 0 380 0
380 145 0 145 0 0 80 0 80 -395 0 -395 0 0 -80z"/>
<path d="M9907 1123 c-5 -8 -363 -851 -378 -890 -8 -23 -8 -23 94 -23 l102 0
40 110 40 110 200 0 200 0 41 -107 41 -108 108 -3 c100 -2 107 -1 101 15 -4
10 -91 217 -194 460 l-187 442 -102 1 c-56 0 -104 -3 -106 -7z m233 -529 c0
-2 -61 -4 -136 -4 -126 0 -136 1 -129 18 4 9 31 80 60 157 29 77 57 149 61
159 5 14 25 -26 76 -154 37 -95 68 -174 68 -176z"/>
<path d="M11490 1051 l0 -81 255 0 c324 0 345 -7 345 -112 0 -88 -40 -108
-220 -108 -251 0 -342 -61 -357 -239 l-6 -71 105 0 104 0 10 52 c15 85 32 92
233 98 162 5 169 6 226 35 74 38 115 104 122 198 11 129 -34 234 -119 279 -42
22 -52 23 -370 26 l-328 3 0 -80z"/>
<path d="M11510 290 l0 -80 105 0 105 0 0 80 0 80 -105 0 -105 0 0 -80z"/>
</g>
</svg>
