<?xml version="1.0" standalone="no"?>
<!DOCTYPE svg PUBLIC "-//W3C//DTD SVG 20010904//EN"
 "http://www.w3.org/TR/2001/REC-SVG-20010904/DTD/svg10.dtd">
<svg version="1.0" xmlns="http://www.w3.org/2000/svg"
 width="493.000000pt" height="98.000000pt" viewBox="0 0 493.000000 98.000000"
 preserveAspectRatio="xMidYMid meet">

<g transform="translate(0.000000,98.000000) scale(0.100000,-0.100000)"
fill="#000000" stroke="none">
<path d="M845 781 c-45 -11 -70 -27 -99 -61 -32 -39 -46 -88 -46 -171 0 -169
85 -248 252 -237 141 11 201 81 201 238 0 160 -61 230 -207 236 -39 2 -84 0
-101 -5z m152 -91 c36 -21 53 -67 53 -140 0 -114 -43 -165 -133 -157 -63 5
-93 34 -107 103 -20 94 11 185 70 207 32 12 87 6 117 -13z"/>
<path d="M3225 781 c-45 -11 -70 -27 -99 -61 -32 -39 -46 -88 -46 -171 0 -169
85 -248 252 -237 141 11 201 81 201 238 0 160 -61 230 -207 236 -39 2 -84 0
-101 -5z m152 -91 c36 -21 53 -67 53 -140 0 -114 -43 -165 -133 -157 -63 5
-93 34 -107 103 -20 94 11 185 70 207 32 12 87 6 117 -13z"/>
<path d="M301 767 c-19 -7 -43 -24 -54 -38 -27 -37 -33 -108 -13 -150 26 -55
48 -63 179 -67 106 -4 119 -6 132 -25 20 -29 19 -43 -5 -67 -18 -18 -33 -20
-160 -20 l-140 0 0 -40 0 -40 153 1 c167 0 209 9 240 50 27 37 33 106 13 152
-22 53 -61 67 -189 67 -88 0 -106 3 -120 18 -22 25 -21 48 3 72 18 18 33 20
160 20 l140 0 0 40 0 40 -152 -1 c-91 0 -167 -5 -187 -12z"/>
<path d="M1220 550 l0 -230 150 0 c210 0 250 20 250 126 0 46 -4 55 -30 77
l-30 26 30 30 c25 25 30 37 30 78 0 103 -41 123 -250 123 l-150 0 0 -230z
m284 134 c9 -8 16 -26 16 -39 0 -44 -23 -55 -121 -55 l-89 0 0 55 0 55 89 0
c68 0 93 -4 105 -16z m0 -190 c9 -8 16 -26 16 -39 0 -44 -23 -55 -121 -55
l-89 0 0 55 0 55 89 0 c68 0 93 -4 105 -16z"/>
<path d="M1700 550 l0 -230 45 0 45 0 0 90 0 90 59 0 59 0 49 -87 48 -88 53
-3 c28 -2 52 1 52 5 0 4 -23 45 -50 91 -28 46 -50 86 -50 90 0 4 10 12 22 17
41 19 62 61 62 121 -1 66 -24 103 -75 121 -20 7 -93 12 -176 12 l-143 1 0
-230z m280 130 c11 -11 20 -29 20 -40 0 -11 -9 -29 -20 -40 -17 -17 -33 -20
-105 -20 l-85 0 0 60 0 60 85 0 c72 0 88 -3 105 -20z"/>
<path d="M2288 770 c-49 -15 -86 -43 -110 -84 -20 -35 -23 -55 -23 -136 0
-114 18 -158 78 -198 38 -25 50 -27 169 -31 l128 -3 0 41 0 41 -100 0 c-54 0
-110 5 -123 11 -26 12 -47 47 -47 79 0 19 8 20 135 20 l135 0 0 40 0 40 -135
0 c-149 0 -151 1 -120 61 21 40 50 49 161 49 l94 0 0 40 0 40 -107 -1 c-60 0
-120 -4 -135 -9z"/>
<path d="M2610 550 l0 -230 50 0 50 0 -6 173 c-3 118 -2 167 5 157 6 -8 50
-85 99 -170 l89 -155 57 -3 56 -3 0 231 0 230 -51 0 -50 0 7 -162 c4 -94 3
-160 -2 -155 -5 5 -48 77 -95 160 l-86 152 -62 3 -61 3 0 -231z"/>
<path d="M3600 550 l0 -230 48 0 47 0 -2 172 -2 173 58 -170 58 -170 53 0 53
0 52 163 c29 90 56 166 59 170 4 3 4 -71 0 -166 l-7 -172 51 0 52 0 0 230 0
230 -73 0 -72 0 -59 -177 -59 -178 -59 178 -60 177 -69 0 -69 0 0 -230z"/>
<path d="M4318 770 c-49 -15 -86 -43 -110 -84 -20 -35 -23 -55 -23 -136 0
-114 18 -158 78 -198 38 -25 50 -27 169 -31 l128 -3 0 41 0 41 -100 0 c-54 0
-110 5 -123 11 -26 12 -47 47 -47 79 0 19 8 20 135 20 l135 0 0 40 0 40 -135
0 c-149 0 -151 1 -120 61 21 40 50 49 161 49 l94 0 0 40 0 40 -107 -1 c-60 0
-120 -4 -135 -9z"/>
</g>
</svg>
